<mxfile host="app.diagrams.net" modified="2024-07-03T14:54:01.360Z" agent="Mozilla/5.0 (Windows NT 10.0; Win64; x64) AppleWebKit/537.36 (KHTML, like Gecko) Chrome/126.0.0.0 Safari/537.36" version="24.6.4" etag="hItbVPCo0fWQf3n2aPDP" type="github">
  <diagram name="Page-1" id="yD1yx5TOEYeryVEvmocO">
    <mxGraphModel dx="2421" dy="703" grid="1" gridSize="10" guides="1" tooltips="1" connect="1" arrows="1" fold="1" page="1" pageScale="1" pageWidth="827" pageHeight="1169" math="0" shadow="0">
      <root>
        <mxCell id="0" />
        <mxCell id="1" parent="0" />
        <mxCell id="2" value="Utilisateur" style="shape=umlActor;verticalAlign=top;" parent="1" vertex="1">
          <mxGeometry x="-90" y="620" width="90" height="60" as="geometry" />
        </mxCell>
        <mxCell id="3" style="shape=umlActor;verticalAlign=top;" parent="1" vertex="1">
          <mxGeometry x="300" y="60" width="90" height="60" as="geometry" />
        </mxCell>
        <mxCell id="4" style="shape=umlActor;verticalAlign=top;" parent="1" vertex="1">
          <mxGeometry x="540" y="480" width="90" height="60" as="geometry" />
        </mxCell>
        <mxCell id="5" parent="1" source="2" target="3" edge="1">
          <mxGeometry relative="1" as="geometry" />
          <mxValue>Click &quot;Ajouter un Dépôt de Vin&quot;</mxValue>
        </mxCell>
        <mxCell id="6" parent="1" source="3" target="2" edge="1">
          <mxGeometry relative="1" as="geometry" />
          <mxValue>Affiche le formulaire</mxValue>
        </mxCell>
        <mxCell id="7" parent="1" source="2" target="3" edge="1">
          <mxGeometry relative="1" as="geometry" />
          <mxValue>Remplit le formulaire et click &quot;Soumettre&quot;</mxValue>
        </mxCell>
        <mxCell id="8" parent="1" source="3" target="4" edge="1">
          <mxGeometry relative="1" as="geometry" />
          <mxValue>Envoie les données du formulaire</mxValue>
        </mxCell>
        <mxCell id="9" parent="1" source="4" target="4" edge="1">
          <mxGeometry relative="1" as="geometry" />
          <mxValue>Traite les données (validation, insertion DB)</mxValue>
        </mxCell>
        <mxCell id="10" style="edgeStyle=orthogonalEdgeStyle;rounded=0;" parent="1" source="4" target="3" edge="1">
          <mxGeometry relative="1" as="geometry" />
          
        </mxCell>
        <mxCell id="11" style="edgeStyle=orthogonalEdgeStyle;rounded=0;" parent="1" source="3" target="2" edge="1">
          <mxGeometry relative="1" as="geometry" />
          
        </mxCell>
      </root>
    </mxGraphModel>
  </diagram>
</mxfile>
